#!OML:ASF F:\VICON\USERDATA\INSTALL\rory3\rory3.ASF
:FULLY-SPECIFIED
:DEGREES
21
root 0.2097734952070463 18.100567638524172 -9.27149268994993 2.893542163009112 -0.9249040255153631 -0.7248162183700635
lfemur -25.81150854102951 0.9615066285481092 -24.38531332996982
ltibia 22.98103849662822
lfoot 10.166774567334432 -13.680594472067291
ltoes -21.775285467928757
rfemur 2.497570345787258 6.083797031874727 26.501062091900902
rtibia 73.12812561125835
rfoot 22.74583557266202 -12.935177210165552
rtoes 8.347321207091984
lowerback nan 2.457221626838253 0.2904352921798723
upperback -0.1283812148224377 3.140022912793384 0.2302032115273227
thorax -8.196485108137086 1.4117474421806893 -1.2932310052279026
lowerneck -17.492224660962446 -5.8788599484383814 -2.4588406402922116
upperneck 8.495513488838741 -8.048789051005745 4.921753017582493
head 5.99458882666772 -3.5899033517872363 1.1744452117001118
lclavicle 5.186978266660897e-16 -2.4077708121373933e-15
lhumerus -62.35749263960595 -2.6448175030789116 88.85598171965863
lradius 111.64676919353985
lwrist 31.518847465092353
lhand -25.060442655402127 2.8167201692276995
lfingers nan
lthumb 1.5348422300060185 32.81020911015435
rclavicle 1.0183059782257425e-15 -2.809879204782933e-15
rhumerus -42.26260056264541 18.516507807872426 -98.59378091232875
rradius 117.28024137831378
rwrist -21.410484186390214
rhand -19.520135937865795 nan
rfingers nan
rthumb 5.860720017148659 10.281126955622167
22
root 0.17679799411257252 17.68097718363284 -8.505924061798627 2.7514963297007706 1.0341022089829726 -0.59960924940671
lfemur -25.45126767618321 0.8088119205084728 -24.74224382258195
ltibia 28.788347283606633
lfoot 6.560626913625118 -16.57479752507563
ltoes -16.139024252833092
rfemur -1.0445553093213231 3.5668099931134365 25.183380365898557
rtibia 81.8824739982404
rfoot 20.646159867988175 -12.808237657117996
rtoes 11.384751700421244
lowerback nan 2.1536980539943946 0.14591976485280522
upperback 0.16680432059275463 2.7616805601390233 -0.3017086122875545
thorax -8.390661166294384 1.3082267772377638 -0.7752771576899736
lowerneck -17.292033749373967 -5.850582647648947 -2.542302876128778
upperneck 8.45920742845545 -8.189629068551147 5.377595224468061
head 5.9871767148872275 -3.632488272709587 1.334752815473682
lclavicle -3.5232472167040696e-16 -2.48130712940222e-15
lhumerus -60.42827837453469 -3.4713915019703387 89.70710373708158
lradius 112.81701945990008
lwrist 33.05893524435618
lhand -26.161376239533595 4.341001681169944
lfingers nan
lthumb 0.2602009205838276 34.3294235482621
rclavicle 3.8056457481915303e-16 -1.8695895972436645e-15
rhumerus -43.22947932060448 16.98931996647316 -99.38049177800825
rradius 112.95764877100957
rwrist -21.69949690631541
rhand -19.18340445975661 nan
rfingers nan
rthumb 7.85676897221958 8.761218725096812
23
root 0.15513050572547482 17.361207663783258 -7.568113478400306 2.751146452478591 1.3281394420140038 -0.46599470811348986
lfemur -25.010205387127883 1.3373363520830215 -24.859438269240858
ltibia 35.64460544676268
lfoot 0.5828697243539684 -16.484791735943986
ltoes -9.95861601877023
rfemur -6.096081472738373 1.5292606742047028 23.66290898137055
rtibia 90.03297800269328
rfoot 18.46703734759152 -11.970073230446854
rtoes 20.55638099807429
lowerback nan 1.874515201487574 -0.1992836842529606
upperback 0.21271505334132257 2.4195813368709174 -0.6003805820756853
thorax -8.835655036692275 1.193624110776476 -0.4483619618067981
lowerneck -17.5780843124705 -5.709096645568948 -2.6786715810285386
upperneck 8.868990607053878 -8.04808212830563 5.708858431225932
head 6.274326833309649 -3.4894681483229917 1.4545111125610832
lclavicle 5.554121779262885e-16 -4.4932427869559206e-15
lhumerus -57.48554634308961 -4.400161037988516 90.66796575621161
lradius 113.19658485021702
lwrist 33.82736226003143
lhand -26.225463468073094 4.169215045764341
lfingers nan
lthumb 0.32734769273744124 34.195396379578874
rclavicle -1.400205660673337e-16 -4.4936416071791256e-15
rhumerus -44.44399742550721 15.357456909007917 -100.41491510143578
rradius 108.95275656274276
rwrist -22.243861902146755
rhand -19.158850370173646 nan
rfingers nan
rthumb 7.824113623684113 7.1938774012392654
24
root 0.13418207240946822 17.151186328596058 -6.878374308588759 3.079627945098637 0.915504964951126 -0.6489729098728247
lfemur -23.487901338494048 1.6136630699645038 -24.411708035826443
ltibia 41.12786926103796
lfoot -5.112461900130541 -12.838981763697072
ltoes -5.991304101478831
rfemur -11.878054225096202 0.30139154269338375 22.94701078001455
rtibia 96.9471053325965
rfoot 16.932770453368583 -10.26082993274568
rtoes 26.015072719670783
lowerback nan 2.010696771437996 -0.5050635313277034
upperback 0.3072453572389954 2.4780816621999127 -0.6582842554404744
thorax -9.128204391210557 1.1944060564261298 -0.34513328165753565
lowerneck -18.505233609869876 -5.58012304715116 -2.580114416424357
upperneck 9.211859896605265 -7.944872402387311 5.821695010405486
head 6.50028660878119 -3.4244161581832735 1.4668959725253945
lclavicle 4.721307044200035e-16 -4.600245421421031e-15
lhumerus -54.54015725778209 -6.119948239332057 91.10305262555455
lradius 113.22529083447094
lwrist 34.29398299787479
lhand -26.0456187332481 4.0660666176491045
lfingers nan
lthumb 0.6109235658924588 34.070453204290345
rclavicle -2.5266028768831056e-16 -4.662112767644291e-15
rhumerus -45.592733958603475 13.438439565779777 -101.15259870072084
rradius 105.02916465831493
rwrist -21.412015847282536
rhand -19.37771060788401 nan
rfingers nan
rthumb 7.682022867500173 6.768244981274094
25
root 0.12326597723221666 17.011081171859882 -6.540143510991324 3.4743765497233148 0.8789750407401198 -0.3858452997108328
lfemur -21.47439152173023 0.9772453425279383 -24.437167496274164
ltibia 44.4697414261167
lfoot -9.332966868234525 -7.219001785724414
ltoes -4.737809247630674
rfemur -17.82483298126843 -1.0521085727904493 21.831142304561958
rtibia 101.6840850186044
rfoot 16.05015555451596 -8.276531215692913
rtoes 22.040605738236955
lowerback nan 1.6147799611712141 -1.2219316314832085
upperback 0.24652069695400314 1.9229109662886714 -0.897373969393682
thorax -9.372223849325445 0.9830416411435283 0.03067384770651707
lowerneck -19.010144368251623 -5.339805610948915 -2.556218688807013
upperneck 9.149057801436394 -7.693415987459545 5.942066037871788
head 6.539376357235269 -3.2944859934412225 1.5046803025682878
lclavicle 1.5581530084456996e-16 -1.9883408985723954e-15
lhumerus -50.6133209651222 -7.595288192158475 91.31178190836206
lradius 112.82472299258465
lwrist 34.578306400274975
lhand -26.262416968037833 3.4665112743565754
lfingers nan
lthumb 0.367696621064578 33.39837241015025
rclavicle -5.280360560274788e-16 -2.2673434358170355e-15
rhumerus -46.955778285202406 11.587162081718366 -101.33215438822984
rradius 101.53952028781191
rwrist -20.434475894705866
rhand -20.212704136926394 nan
rfingers nan
rthumb 7.359444260103253 6.591995560831425
